<?xml version="1.0" encoding="UTF-8"?>
<svg width="1920" height="1080" viewBox="0 0 1920 1080" xmlns="http://www.w3.org/2000/svg">
    <defs>
        <linearGradient id="gradient" x1="0%" y1="0%" x2="100%" y2="100%">
            <stop offset="0%" style="stop-color:#e74c3c;stop-opacity:1" />
            <stop offset="100%" style="stop-color:#c0392b;stop-opacity:1" />
        </linearGradient>
        <!-- 定义渔网图案 -->
        <pattern id="fishing-net" x="0" y="0" width="100" height="100" patternUnits="userSpaceOnUse">
            <path d="M0,0 L100,0 M0,20 L100,20 M0,40 L100,40 M0,60 L100,60 M0,80 L100,80 M0,100 L100,100 M0,0 L0,100 M20,0 L20,100 M40,0 L40,100 M60,0 L60,100 M80,0 L80,100 M100,0 L100,100" 
                  stroke="#fff" stroke-width="1" fill="none" opacity="0.1"/>
        </pattern>
        <!-- 定义波浪图案 -->
        <pattern id="waves" x="0" y="0" width="200" height="100" patternUnits="userSpaceOnUse">
            <path d="M0,50 Q50,30 100,50 T200,50" stroke="#fff" stroke-width="2" fill="none" opacity="0.1"/>
            <path d="M0,70 Q50,90 100,70 T200,70" stroke="#fff" stroke-width="2" fill="none" opacity="0.1"/>
        </pattern>
    </defs>
    <rect width="100%" height="100%" fill="url(#gradient)"/>
    
    <!-- 背景图案 -->
    <rect width="100%" height="100%" fill="url(#fishing-net)" opacity="0.1"/>
    <rect width="100%" height="100%" fill="url(#waves)" opacity="0.1"/>
    
    <!-- 装饰性元素 -->
    <g opacity="0.1">
        <!-- 渔网图案 -->
        <path d="M0,540 Q480,360 960,540 T1920,540" stroke="#fff" fill="none" stroke-width="2"/>
        <path d="M0,540 Q480,720 960,540 T1920,540" stroke="#fff" fill="none" stroke-width="2"/>
        
        <!-- 渔船剪影 -->
        <path d="M200,800 L300,800 L350,750 L150,750 Z" fill="#fff" opacity="0.1"/>
        <path d="M400,800 L500,800 L550,750 L350,750 Z" fill="#fff" opacity="0.1"/>
        
        <!-- 波浪线 -->
        <path d="M0,900 Q200,850 400,900 T800,900 T1200,900 T1600,900 T1920,900" 
              stroke="#fff" fill="none" stroke-width="2"/>
    </g>
</svg> 