<?xml version="1.0" encoding="UTF-8"?>
<svg width="800" height="600" viewBox="0 0 800 600" xmlns="http://www.w3.org/2000/svg">
    <defs>
        <linearGradient id="sky" x1="0%" y1="0%" x2="100%" y2="100%">
            <stop offset="0%" style="stop-color:#3498db;stop-opacity:1" />
            <stop offset="100%" style="stop-color:#2980b9;stop-opacity:1" />
        </linearGradient>
        <linearGradient id="sea" x1="0%" y1="0%" x2="100%" y2="100%">
            <stop offset="0%" style="stop-color:#1abc9c;stop-opacity:1" />
            <stop offset="100%" style="stop-color:#16a085;stop-opacity:1" />
        </linearGradient>
    </defs>
    
    <!-- 背景 -->
    <rect width="100%" height="100%" fill="url(#sky)"/>
    
    <!-- 海洋 -->
    <rect x="0" y="400" width="800" height="200" fill="url(#sea)"/>
    
    <!-- 波浪 -->
    <path d="M0,450 Q200,430 400,450 T800,450" stroke="#fff" fill="none" stroke-width="2" opacity="0.3"/>
    <path d="M0,470 Q200,490 400,470 T800,470" stroke="#fff" fill="none" stroke-width="2" opacity="0.3"/>
    
    <!-- 渔港建筑 -->
    <rect x="200" y="250" width="400" height="150" fill="#e67e22"/>
    <rect x="250" y="200" width="300" height="50" fill="#e67e22"/>
    
    <!-- 窗户 -->
    <g fill="#f1c40f">
        <rect x="220" y="270" width="60" height="40" rx="5"/>
        <rect x="300" y="270" width="60" height="40" rx="5"/>
        <rect x="380" y="270" width="60" height="40" rx="5"/>
        <rect x="460" y="270" width="60" height="40" rx="5"/>
    </g>
    
    <!-- 门 -->
    <rect x="370" y="350" width="60" height="50" fill="#c0392b"/>
    
    <!-- 渔船 -->
    <path d="M100,450 L200,450 L180,420 L120,420 Z" fill="#2c3e50"/>
    <path d="M600,450 L700,450 L680,420 L620,420 Z" fill="#2c3e50"/>
    
    <!-- 码头 -->
    <rect x="0" y="400" width="800" height="20" fill="#7f8c8d"/>
</svg> 