<?xml version="1.0" encoding="UTF-8"?>
<svg width="800" height="600" viewBox="0 0 800 600" xmlns="http://www.w3.org/2000/svg">
    <defs>
        <linearGradient id="sky" x1="0%" y1="0%" x2="100%" y2="100%">
            <stop offset="0%" style="stop-color:#3498db;stop-opacity:1" />
            <stop offset="100%" style="stop-color:#2980b9;stop-opacity:1" />
        </linearGradient>
        <linearGradient id="sea" x1="0%" y1="0%" x2="100%" y2="100%">
            <stop offset="0%" style="stop-color:#1abc9c;stop-opacity:1" />
            <stop offset="100%" style="stop-color:#16a085;stop-opacity:1" />
        </linearGradient>
    </defs>
    
    <!-- 背景 -->
    <rect width="100%" height="100%" fill="url(#sky)"/>
    
    <!-- 海洋 -->
    <rect x="0" y="400" width="800" height="200" fill="url(#sea)"/>
    
    <!-- 波浪 -->
    <path d="M0,450 Q200,430 400,450 T800,450" stroke="#fff" fill="none" stroke-width="2" opacity="0.3"/>
    <path d="M0,470 Q200,490 400,470 T800,470" stroke="#fff" fill="none" stroke-width="2" opacity="0.3"/>
    
    <!-- 酒店建筑 -->
    <rect x="200" y="200" width="400" height="200" fill="#fff"/>
    <rect x="250" y="150" width="300" height="50" fill="#fff"/>
    <rect x="300" y="100" width="200" height="50" fill="#fff"/>
    
    <!-- 窗户 -->
    <g fill="#3498db">
        <rect x="220" y="220" width="60" height="40" rx="5"/>
        <rect x="300" y="220" width="60" height="40" rx="5"/>
        <rect x="380" y="220" width="60" height="40" rx="5"/>
        <rect x="460" y="220" width="60" height="40" rx="5"/>
        <rect x="220" y="280" width="60" height="40" rx="5"/>
        <rect x="300" y="280" width="60" height="40" rx="5"/>
        <rect x="380" y="280" width="60" height="40" rx="5"/>
        <rect x="460" y="280" width="60" height="40" rx="5"/>
    </g>
    
    <!-- 门 -->
    <rect x="370" y="350" width="60" height="50" fill="#e74c3c"/>
    
    <!-- 沙滩 -->
    <rect x="0" y="450" width="800" height="150" fill="#f1c40f"/>
</svg> 